<svg width="18" height="18" viewBox="0 0 18 18" fill="none" xmlns="http://www.w3.org/2000/svg">
<mask id="mask0_2_2658" style="mask-type:luminance" maskUnits="userSpaceOnUse" x="0" y="0" width="18" height="18">
<path fill-rule="evenodd" clip-rule="evenodd" d="M9 18C13.9706 18 18 13.9706 18 9C18 4.02944 13.9706 0 9 0C4.02944 0 0 4.02944 0 9C0 13.9706 4.02944 18 9 18Z" fill="white"/>
</mask>
<g mask="url(#mask0_2_2658)">
<path fill-rule="evenodd" clip-rule="evenodd" d="M5.50448 7.56369L9.00007 4.06824L12.4975 7.56554L14.5315 5.53156L9.00007 0L3.4705 5.52971L5.50448 7.56369ZM2.03416 6.96568L4.0681 8.99962L2.03396 11.0338L1.35581e-05 8.99982L2.03416 6.96568ZM9.00006 13.9316L5.50447 10.4362L3.4675 12.4674L3.47035 12.4703L9.00006 18L14.5315 12.4684L14.5325 12.4673L12.4974 10.4345L9.00006 13.9316ZM18.0003 9.00087L15.9662 11.0349L13.9323 9.00097L15.9663 6.96693L18.0003 9.00087ZM11.064 8.99901H11.0631L11.0649 9.00001L11.064 9.00115L8.99998 11.065L6.93785 9.00285L6.93501 9.00001L6.93785 8.99702L7.29938 8.63549L7.47453 8.46034H7.47467L8.99998 6.9349L11.064 8.99901Z" fill="#F5BC00"/>
</g>
</svg>
