<svg width="34" height="32" viewBox="0 0 34 32" fill="none" xmlns="http://www.w3.org/2000/svg">
<path d="M4.23543 3.65224C6.57671 1.50948 9.75587 0.258792 12.978 0.103222C14.0808 0.103222 15.1869 0.109567 16.2897 0.100052C16.2333 1.23333 16.2896 2.36979 16.2565 3.50301C16.1009 6.0362 15.1239 8.51225 13.4781 10.4994C11.3388 13.1723 8.06695 14.9659 4.5931 15.4293C3.0764 15.6643 1.53648 15.515 0.00985041 15.5563C0.0363195 14.3087 -0.0464532 13.0581 0.0562268 11.8137C0.354285 8.72814 1.8743 5.77275 4.23543 3.65224Z" fill="#0D0C07"/>
<path d="M33.5428 0C33.5296 1.13328 33.5495 2.26656 33.5362 3.40301C33.3276 6.23143 32.1951 9.02174 30.2312 11.1516C28.1284 13.5007 25.1215 15.1102 21.9092 15.523C20.419 15.7036 18.9123 15.5897 17.4154 15.6596C17.4187 14.6688 17.422 13.6819 17.4154 12.6912C17.485 10.2566 18.3062 7.86308 19.6905 5.82509C20.3925 4.88544 21.1045 3.92041 22.0781 3.21573C23.8797 1.66976 26.1414 0.619052 28.5258 0.222226C30.1816 -0.0761729 31.8705 0.044456 33.5428 0Z" fill="#0D0C07"/>
<path d="M0.012235 16.4673C1.06203 16.5244 2.11513 16.4197 3.16155 16.5308C7.64213 16.6228 11.9903 19.0354 14.3117 22.7082C15.643 24.7652 16.3583 27.2034 16.2656 29.6251C16.2622 30.419 16.2755 31.2092 16.2523 32C14.5899 31.9521 12.9109 32.0822 11.265 31.7742C7.60904 31.184 4.2478 29.0982 2.22437 26.1207C0.691122 23.9557 -0.0738472 21.3114 0.00561625 18.6989C0.00561625 17.9529 0.00561775 17.2101 0.012235 16.4673Z" fill="#0D0C07"/>
<path d="M28.0517 16.8036C29.8535 16.4195 31.7108 16.483 33.5423 16.483L33.622 16.5592C33.5821 18.2194 33.7178 19.8987 33.3702 21.5398C32.6383 25.2222 30.0952 28.5107 26.6741 30.3169C24.5448 31.4538 22.1008 32.0123 19.6668 31.9871C18.8886 31.9903 18.107 31.9742 17.3288 31.9962C17.3288 30.6217 17.2692 29.2412 17.4315 27.8726C17.809 24.5619 19.6767 21.4795 22.3624 19.3971C24.0248 18.14 25.9787 17.229 28.0517 16.8036Z" fill="#0D0C07"/>
</svg>
