<svg width="143" height="32" viewBox="0 0 143 32" fill="none" xmlns="http://www.w3.org/2000/svg">
<path d="M69.0399 7.13897C69.2446 6.81199 69.381 6.41962 69.381 6.02725C69.381 4.91553 68.426 4 67.2662 4H52.2235C51.6436 4 51.2002 4.45777 51.2002 4.98093V10.5395C51.2002 10.9973 51.5754 11.3569 52.053 11.3569C52.3258 11.3569 52.5987 11.2262 52.7352 10.9973L53.5197 9.88556C54.9182 7.85831 57.2718 6.6158 59.796 6.6158H61.945C62.1837 6.6158 62.3543 6.91008 62.2179 7.13897L50.6544 24.5668C50.4498 24.8937 50.3133 25.2534 50.3133 25.6458C50.3133 26.7575 51.2684 27.673 52.4282 27.673H68.3577C68.9035 27.673 69.381 27.248 69.381 26.6921V21.1335C69.381 20.7084 69.0058 20.3161 68.5283 20.3161C68.2554 20.3161 67.9825 20.4796 67.812 20.7084L67.0615 21.7875C65.663 23.8474 63.3094 25.0572 60.7511 25.0572H57.7494C57.5106 25.0572 57.3401 24.7629 57.4765 24.5668L69.0399 7.13897Z" fill="#0D0C07"/>
<path d="M88.0783 21.8856C87.7031 21.6894 87.2256 21.7875 86.9868 22.0817C86.2705 22.8992 84.7696 24.3379 82.5866 24.3379C80.0965 24.3379 78.4592 22.9973 77.47 21.2643L87.5667 17.7003L87.6008 17.6676C88.1124 17.5041 88.3853 16.9482 88.2148 16.4578C86.8163 12.3706 83.8828 10.5722 80.6764 10.5722C75.2187 10.5722 71.4325 14.2016 71.4325 19.3025C71.4325 24.4033 74.8776 28 80.3353 28C85.2813 28 87.6349 24.6322 88.4877 23.03C88.7264 22.6049 88.5218 22.0817 88.0783 21.8856ZM78.1863 12.7956C79.8236 12.2725 81.7679 13.515 83.2688 17.2752L76.7878 19.5967C75.9009 16.654 76.5149 13.3515 78.1863 12.7956Z" fill="#0D0C07"/>
<path d="M101.652 24.5341C101.38 24.2398 100.902 24.2071 100.527 24.436C100.22 24.6322 99.8105 24.7956 99.367 24.7956C98.2414 24.7956 97.6956 23.9782 97.6956 22.8011V12.3706L100.288 12.4033C100.8 12.4033 101.209 12.0109 101.209 11.4877C101.209 10.9973 100.8 10.6049 100.288 10.6049L97.6956 10.5722C97.6956 8.51226 97.6956 7.00817 97.6956 7.00817C97.6956 6.6812 97.5251 6.38692 97.2181 6.25613C96.8428 6.09264 96.3994 6.22343 96.1606 6.51771C95.3761 7.56403 93.807 9.23161 90.703 10.3106C90.2937 10.4741 89.9867 10.8665 89.9867 11.2916C89.9867 11.8801 90.4983 12.3379 91.0782 12.3706H91.8968V23.9128C91.8968 26.6267 94.0117 28 95.956 28C98.7871 28 100.731 26.5613 101.652 25.7112C101.994 25.4169 101.994 24.8937 101.687 24.5668L101.652 24.5341Z" fill="#0D0C07"/>
<path d="M120.392 24.6975V17.1117C120.392 12.109 116.981 10.5722 112.308 10.5722C109.613 10.5722 106.851 11.5204 105.384 13.4496C104.292 14.8229 105.35 16.7847 107.158 16.7847C108.249 16.7847 109.17 16 109.306 14.9864C109.545 13.4169 110.159 12.0436 111.728 12.0436C113.195 12.0436 114.594 13.188 114.594 16.2289V17.2752C111.387 17.6676 103.644 19.139 103.644 23.6512C103.644 26.5286 106.1 28 109.204 28C111.455 28 113.332 26.8883 114.662 25.7766C114.866 26.8556 115.89 27.673 117.084 27.673H120.972C121.484 27.673 121.927 27.248 121.927 26.7575C121.927 26.5286 121.859 26.3324 121.689 26.1689L120.392 24.6975ZM109.784 23.0954C109.784 20.1853 112.445 19.0082 114.594 18.6812V24.0109C113.775 24.7629 112.718 25.4496 111.728 25.4496C110.398 25.4496 109.784 24.6649 109.784 23.0954Z" fill="#0D0C07"/>
<path d="M141.232 24.6975V17.3406C141.232 12.0109 137.752 10.6049 135.228 10.6049C133.455 10.6049 132.022 11.455 130.964 12.436V11.782C130.964 11.3896 130.76 10.9973 130.385 10.7684C130.078 10.5395 129.668 10.5068 129.293 10.6049L125.166 11.8147L124.415 12.0109C123.938 12.1744 123.631 12.5668 123.631 13.0245C123.631 13.3188 123.767 13.6131 124.006 13.8093L125.166 14.7902V24.6975L123.869 26.1689C123.733 26.3324 123.631 26.5286 123.631 26.7575C123.631 27.248 124.074 27.673 124.586 27.673H131.544C132.056 27.673 132.499 27.248 132.499 26.7575C132.499 26.5286 132.397 26.3324 132.261 26.1689L130.964 24.6975V14.3651C131.681 13.4823 132.568 12.7302 133.489 12.7302C134.989 12.7302 135.433 14.1035 135.433 17.9945V24.6975L134.137 26.1689C134 26.3324 133.932 26.5286 133.932 26.7575C133.932 27.248 134.341 27.673 134.887 27.673H141.812C142.323 27.673 142.767 27.248 142.767 26.7575C142.767 26.5286 142.698 26.3324 142.528 26.1689L141.232 24.6975Z" fill="#0D0C07"/>
<path d="M4.23543 3.65224C6.57672 1.50948 9.75587 0.258792 12.978 0.103222C14.0808 0.103222 15.1869 0.109567 16.2897 0.100052C16.2333 1.23333 16.2896 2.36979 16.2565 3.50301C16.1009 6.0362 15.1239 8.51225 13.4781 10.4994C11.3388 13.1724 8.06695 14.9659 4.5931 15.4293C3.0764 15.6643 1.53648 15.515 0.00985041 15.5563C0.0363195 14.3087 -0.0464532 13.0581 0.0562268 11.8137C0.354285 8.72814 1.8743 5.77275 4.23543 3.65224Z" fill="#0D0C07"/>
<path d="M33.5428 0C33.5296 1.13328 33.5495 2.26656 33.5362 3.40301C33.3276 6.23143 32.1951 9.02174 30.2312 11.1516C28.1284 13.5007 25.1215 15.1102 21.9092 15.523C20.419 15.7036 18.9123 15.5897 17.4154 15.6596C17.4187 14.6688 17.422 13.6819 17.4154 12.6912C17.485 10.2566 18.3062 7.86308 19.6905 5.82509C20.3925 4.88544 21.1045 3.92041 22.0781 3.21573C23.8797 1.66976 26.1414 0.619052 28.5258 0.222226C30.1816 -0.0761729 31.8705 0.044456 33.5428 0Z" fill="#0D0C07"/>
<path d="M0.012235 16.4673C1.06203 16.5244 2.11513 16.4197 3.16155 16.5308C7.64213 16.6228 11.9903 19.0354 14.3117 22.7082C15.643 24.7652 16.3583 27.2034 16.2656 29.6251C16.2622 30.419 16.2755 31.2092 16.2523 32C14.5899 31.9521 12.9109 32.0822 11.265 31.7742C7.60904 31.184 4.2478 29.0982 2.22437 26.1207C0.691122 23.9557 -0.0738472 21.3114 0.00561625 18.6989C0.00561625 17.9529 0.00561775 17.2101 0.012235 16.4673Z" fill="#0D0C07"/>
<path d="M28.0517 16.8036C29.8535 16.4195 31.7108 16.483 33.5423 16.483L33.622 16.5592C33.5821 18.2194 33.7178 19.8987 33.3702 21.5398C32.6383 25.2222 30.0952 28.5107 26.6741 30.3169C24.5448 31.4538 22.1008 32.0123 19.6668 31.9871C18.8886 31.9903 18.107 31.9742 17.3288 31.9962C17.3288 30.6217 17.2692 29.2412 17.4315 27.8726C17.809 24.5619 19.6767 21.4795 22.3624 19.3971C24.0248 18.14 25.9787 17.229 28.0517 16.8036Z" fill="#0D0C07"/>
</svg>
