<svg width="40" height="40" viewBox="0 0 40 40" fill="none" xmlns="http://www.w3.org/2000/svg">
<path d="M22.4336 31.0115V34.7543L19.1758 36.6697L16.0153 34.7543V31.0115L19.1758 32.9269L22.4336 31.0115ZM5 18.0791L8.16048 19.9961V26.4128L13.621 29.6706V33.4058L5 28.3283V18.0791ZM33.3532 18.0791V28.3283L24.6364 33.4058V29.6706L30.0954 26.4128V19.9961L33.3532 18.0791ZM24.6364 13.0032L27.8926 14.9186V18.6553L22.4336 21.9116V28.421L19.2716 30.3364L16.1111 28.421V21.9116L10.4606 18.6553V14.9186L13.7168 13.0032L19.1758 16.2595L24.6364 13.0032ZM10.4606 21.3369L13.621 23.2524V26.9875L10.4606 25.072V21.3369ZM27.8926 21.3369V25.072L24.7321 26.9875V23.2524L27.8926 21.3369ZM8.16048 9.75159L11.4229 11.6624L8.16511 13.5778V17.313L5.00463 15.3975V11.6624L8.16048 9.75159ZM30.1912 9.75159L33.449 11.667V15.4021L30.1912 17.3176V13.5778L27.0245 11.6624L30.1912 9.75159ZM19.1758 9.75159L22.4336 11.667L19.1758 13.5825L16.0153 11.667L19.1758 9.75159ZM19.1758 3.33331L27.8926 8.41078L24.7321 10.3262L19.2716 7.06842L13.7106 10.3262L10.5501 8.41078L19.1758 3.33331Z" fill="#F3BA2F"/>
</svg>
