<svg width="40" height="40" viewBox="0 0 40 40" fill="none" xmlns="http://www.w3.org/2000/svg">
<path d="M20.0002 36.6666C29.2049 36.6666 36.6668 29.2047 36.6668 20C36.6668 10.7952 29.2049 3.33331 20.0002 3.33331C10.7954 3.33331 3.3335 10.7952 3.3335 20C3.3335 29.2047 10.7954 36.6666 20.0002 36.6666Z" fill="#1969FF"/>
<path d="M18.9894 8.63344C19.5509 8.33744 20.4052 8.33744 20.9668 8.63344L26.6965 11.6541C27.0347 11.8324 27.2204 12.0981 27.2536 12.3723H27.2591V27.5556C27.2516 27.8548 27.0642 28.152 26.6965 28.3458L20.9668 31.3665C20.4053 31.6625 19.5509 31.6625 18.9894 31.3665L13.2597 28.3458C12.8935 28.1528 12.7178 27.8536 12.7091 27.5556C12.7081 27.5301 12.7081 27.5046 12.709 27.4791V12.4746C12.7082 12.4536 12.7082 12.4325 12.709 12.4115V12.3723H12.7117C12.7371 12.0951 12.9144 11.8362 13.2597 11.6541L18.9894 8.63347L18.9894 8.63344ZM26.3477 20.8138L20.965 23.6608C20.4043 23.9574 19.5512 23.9574 18.9905 23.6608L13.6198 20.8201V27.5087L18.9905 30.3343C19.3078 30.5041 19.6379 30.6696 19.9592 30.6768L19.9777 30.6771C20.2984 30.6781 20.6098 30.515 20.9256 30.3606L26.3477 27.4843V20.8138ZM11.8107 27.2265C11.8107 27.8086 11.8777 28.1911 12.0109 28.4606C12.1212 28.6841 12.2868 28.8548 12.589 29.0625L12.6063 29.0743C12.6726 29.1194 12.7457 29.1667 12.8347 29.2222L12.9396 29.2871L13.2617 29.4832L12.7997 30.2539L12.4391 30.0342L12.3785 29.9966C12.2743 29.9317 12.1879 29.8759 12.1073 29.8211C11.2457 29.2351 10.9244 28.5962 10.9181 27.267L10.918 27.2265H11.8107ZM19.5443 16.7773C19.5026 16.7916 19.4635 16.8083 19.4279 16.8271L13.7069 19.8575C13.7009 19.8607 13.6952 19.8638 13.6897 19.867L13.6849 19.8698L13.6939 19.8749L13.7069 19.882L19.4279 22.9124C19.4635 22.9313 19.5026 22.9479 19.5443 22.9622V16.7773ZM20.4557 16.7773V22.9622C20.4958 22.9486 20.5347 22.932 20.5721 22.9124L26.2931 19.882C26.2991 19.8788 26.3048 19.8757 26.3103 19.8726L26.3151 19.8698L26.3061 19.8646L26.2931 19.8575L20.5721 16.8271C20.5347 16.8075 20.4958 16.7909 20.4557 16.7773ZM26.3477 13.457L21.2044 16.1588L26.3477 18.8606V13.457ZM13.6198 13.457V18.8606L18.763 16.1588L13.6198 13.457ZM20.5671 9.44095C20.2694 9.28353 19.7306 9.28353 19.4329 9.44095L13.707 12.4682C13.7009 12.4714 13.6952 12.4745 13.6897 12.4776L13.6849 12.4804L13.6939 12.4856L13.7069 12.4927L19.4328 15.5199C19.7306 15.6773 20.2694 15.6773 20.5671 15.5199L26.293 12.4927C26.2991 12.4895 26.3048 12.4864 26.3102 12.4832L26.3151 12.4804L26.3061 12.4753L26.293 12.4682L20.5671 9.44095ZM27.2003 9.74607L27.5609 9.96579L27.6215 10.0033C27.7257 10.0682 27.8121 10.124 27.8927 10.1788C28.7543 10.7649 29.0756 11.4038 29.0819 12.7329L29.082 12.7734H28.1893C28.1893 12.1913 28.1223 11.8088 27.9891 11.5393C27.8788 11.3159 27.7133 11.1452 27.411 10.9374L27.3937 10.9257C27.3186 10.8748 27.2424 10.8255 27.1653 10.7777L27.0604 10.7129L26.7383 10.5167L27.2003 9.74607Z" fill="white"/>
</svg>
