<svg width="40" height="40" viewBox="0 0 40 40" fill="none" xmlns="http://www.w3.org/2000/svg">
<path d="M27.7154 14.7346C27.1671 14.4213 26.4621 14.4213 25.8355 14.7346L21.4491 17.3194L18.4726 18.9643L14.1645 21.5492C13.6162 21.8625 12.9112 21.8625 12.2846 21.5492L8.91645 19.5126C8.36815 19.1993 7.9765 18.5727 7.9765 17.8677V13.9513C7.9765 13.3247 8.28982 12.698 8.91645 12.3064L12.2846 10.3481C12.8329 10.0348 13.5379 10.0348 14.1645 10.3481L17.5326 12.3847C18.0809 12.698 18.4726 13.3247 18.4726 14.0296V16.6145L21.4491 14.8912V12.228C21.4491 11.6014 21.1358 10.9748 20.5091 10.5831L14.2428 6.90167C13.6945 6.58836 12.9896 6.58836 12.3629 6.90167L5.93995 10.6615C5.31332 10.9748 5 11.6014 5 12.228V19.591C5 20.2176 5.31332 20.8442 5.93995 21.2359L12.2846 24.9173C12.8329 25.2307 13.5379 25.2307 14.1645 24.9173L18.4726 22.4108L21.4491 20.6876L25.7572 18.181C26.3055 17.8677 27.0104 17.8677 27.6371 18.181L31.0052 20.1393C31.5535 20.4526 31.9452 21.0792 31.9452 21.7842V25.7006C31.9452 26.3273 31.6319 26.9539 31.0052 27.3455L27.7154 29.3038C27.1671 29.6171 26.4621 29.6171 25.8355 29.3038L22.4674 27.3455C21.9191 27.0322 21.5274 26.4056 21.5274 25.7006V23.1941L18.5509 24.9173V27.5022C18.5509 28.1288 18.8642 28.7555 19.4909 29.1471L25.8355 32.8286C26.3838 33.1419 27.0888 33.1419 27.7154 32.8286L34.0601 29.1471C34.6084 28.8338 35 28.2072 35 27.5022V20.0609C35 19.4343 34.6867 18.8077 34.0601 18.416L27.7154 14.7346Z" fill="#8247E5"/>
</svg>
